# xmcd
#
# Track frame offsets: 
#        150
#        25538
#        50052
#        65849
#        87565
#        103966
#        123909
#        140335
#        161356
#        177734
#        197064
#        212786
#        233267
#
# Disc length: 3342 seconds
#
# Revision: 0
# Processed by: cddbd v1.5.2PL0 Copyright (c) Steve Scherf et al.
# Submitted via: ExactAudioCopy v0.95b4
#
DISCID=b90d0c0d
DTITLE=Светлана Питерская - Женская доля
DYEAR=2005
DGENRE=Chanson
TTITLE0=Метель
TTITLE1=Воровочка
TTITLE2=Приговоренный
TTITLE3=Берег надежды
TTITLE4=Мечты разбились
TTITLE5=Ромашки
TTITLE6=У меня украли
TTITLE7=Женская доля
TTITLE8=Да, он был там
TTITLE9=Вязаный жакет
TTITLE10=Косынка алая
TTITLE11=Матери
TTITLE12=А ты проходишь мимо
EXTD=
EXTT0=
EXTT1=
EXTT2=
EXTT3=
EXTT4=
EXTT5=
EXTT6=
EXTT7=
EXTT8=
EXTT9=
EXTT10=
EXTT11=
EXTT12=
PLAYORDER=
